<?xml version="1.0" encoding="UTF-8"?>
<svg width="24px" height="32px" viewBox="0 0 24 32" version="1.1" xmlns="http://www.w3.org/2000/svg" xmlns:xlink="http://www.w3.org/1999/xlink">
    <title>bookmark-check</title>
    <g id="👋-Welcome" stroke="none" stroke-width="1" fill="none" fill-rule="evenodd">
        <g id="M&amp;A-Path" transform="translate(-270, -26852)" fill="#474747" fill-rule="nonzero">
            <g id="Group-77" transform="translate(0, 26420)">
                <g id="Group-78" transform="translate(222, 384)">
                    <g id="bookmark-check" transform="translate(48, 48)">
                        <path d="M17.708285,10.2921657 C17.8963715,10.4797772 18.0020773,10.7345183 18.0020773,11.0001771 C18.0020773,11.2658359 17.8963715,11.5205769 17.708285,11.7081884 L11.7081884,17.708285 C11.5205769,17.8963715 11.2658359,18.0020773 11.0001771,18.0020773 C10.7345183,18.0020773 10.4797772,17.8963715 10.2921657,17.708285 L7.29211737,14.7082367 C7.03916925,14.4552886 6.94038177,14.0866087 7.0329672,13.7410752 C7.12555263,13.3955416 7.39544506,13.1256492 7.7409786,13.0330638 C8.08651215,12.9404783 8.45519205,13.0392658 8.70814016,13.2922139 L11.0001771,15.5862509 L16.2922622,10.2921657 C16.4798738,10.1040792 16.7346148,9.99837336 17.0002736,9.99837336 C17.2659324,9.99837336 17.5206735,10.1040792 17.708285,10.2921657" id="Path"></path>
                        <path d="M0,4.00006438 C0,1.79088983 1.79088983,0 4.00006438,0 L20.0003219,0 C22.2094965,0 24.0003863,1.79088983 24.0003863,4.00006438 L24.0003863,31.000499 C24.0003863,31.3690566 23.7972987,31.707635 23.4723789,31.8815946 C23.1474592,32.0555542 22.7531917,32.0366934 22.4463613,31.8325124 L12.0001931,26.2024217 L1.55402501,31.8325124 C1.24719462,32.0366934 0.852927098,32.0555542 0.528007369,31.8815946 C0.203087639,31.707635 0,31.3690566 0,31.000499 L0,4.00006438 Z M4.00006438,2.00003219 C2.8954771,2.00003219 2.00003219,2.8954771 2.00003219,4.00006438 L2.00003219,29.1324689 L11.4461842,24.168389 C11.7817677,23.9450743 12.2186186,23.9450743 12.5542021,24.168389 L22.0003541,29.1324689 L22.0003541,4.00006438 C22.0003541,2.8954771 21.1049092,2.00003219 20.0003219,2.00003219 L4.00006438,2.00003219 Z" id="Shape"></path>
                    </g>
                </g>
            </g>
        </g>
    </g>
</svg>