<?xml version="1.0" encoding="UTF-8"?>
<svg width="1158px" height="429px" viewBox="0 0 1158 429" version="1.1" xmlns="http://www.w3.org/2000/svg" xmlns:xlink="http://www.w3.org/1999/xlink">
    <title>Group 88</title>
    <defs>
        <rect id="path-1" x="0" y="0" width="764" height="266" rx="28"></rect>
    </defs>
    <g id="👋-Welcome" stroke="none" stroke-width="1" fill="none" fill-rule="evenodd">
        <g id="M&amp;A-Path" transform="translate(-221, -6492)">
            <g id="Group-123" transform="translate(221, 5628)">
                <g id="Group-37" transform="translate(0, 816)">
                    <g id="Group-88" transform="translate(0, 48)">
                        <g id="Group-2" transform="translate(394, 0)">
                            <mask id="mask-2" fill="white">
                                <use xlink:href="#path-1"></use>
                            </mask>
                            <use id="Rectangle-Copy-4" fill="#F8F9FA" xlink:href="#path-1"></use>
                            <g id="Group-35" mask="url(#mask-2)">
                                <g transform="translate(12, 12)">
                                    <rect id="Rectangle-Copy-3" fill="#252525" fill-rule="evenodd" x="0" y="0" width="176" height="115" rx="12"></rect>
                                    <text id="#252525" fill="none" font-family="HelveticaNeue-Medium, Helvetica Neue" font-size="16" font-weight="400" line-spacing="20" letter-spacing="-0.4">
                                        <tspan x="24" y="40" fill="#FFFFFF">#252525</tspan>
                                    </text>
                                </g>
                            </g>
                            <g id="Group-35-Copy-4" mask="url(#mask-2)">
                                <g transform="translate(12, 139)">
                                    <rect id="Rectangle-Copy-3" fill="#191919" fill-rule="evenodd" x="0" y="0" width="364" height="115" rx="12"></rect>
                                    <text id="#191919" fill="none" font-family="HelveticaNeue-Medium, Helvetica Neue" font-size="16" font-weight="400" line-spacing="20" letter-spacing="-0.4">
                                        <tspan x="24" y="40" fill="#FFFFFF">#191919</tspan>
                                    </text>
                                </g>
                            </g>
                            <g id="Group-35-Copy-5" mask="url(#mask-2)">
                                <g transform="translate(388, 139)">
                                    <rect id="Rectangle-Copy-3" fill="#FFFFFF" fill-rule="evenodd" x="0" y="0" width="364" height="115" rx="12"></rect>
                                    <text id="#FFFFFF" fill="none" font-family="HelveticaNeue-Medium, Helvetica Neue" font-size="16" font-weight="400" line-spacing="20" letter-spacing="-0.4">
                                        <tspan x="24" y="40" fill="#252525">#FFFFFF</tspan>
                                    </text>
                                </g>
                            </g>
                            <g id="Group-35-Copy-2" mask="url(#mask-2)">
                                <g transform="translate(388, 12)">
                                    <rect id="Rectangle-Copy-3" fill="#696969" fill-rule="evenodd" x="0" y="0" width="176" height="115" rx="12"></rect>
                                    <text id="#696969" fill="none" font-family="HelveticaNeue-Medium, Helvetica Neue" font-size="16" font-weight="400" line-spacing="20" letter-spacing="-0.4">
                                        <tspan x="24" y="40" fill="#FFFFFF">#696969</tspan>
                                    </text>
                                </g>
                            </g>
                            <g id="Group-35-Copy" mask="url(#mask-2)">
                                <g transform="translate(200, 12)">
                                    <rect id="Rectangle-Copy-3" fill="#474747" fill-rule="evenodd" x="0" y="0" width="176" height="115" rx="12"></rect>
                                    <text id="#474747" fill="none" font-family="HelveticaNeue-Medium, Helvetica Neue" font-size="16" font-weight="400" line-spacing="20" letter-spacing="-0.4">
                                        <tspan x="24" y="40" fill="#FFFFFF">#474747</tspan>
                                    </text>
                                </g>
                            </g>
                            <g id="Group-35-Copy-3" mask="url(#mask-2)">
                                <g transform="translate(576, 12)">
                                    <rect id="Rectangle-Copy-3" fill="#D1D1D1" fill-rule="evenodd" x="0" y="0" width="176" height="115" rx="12"></rect>
                                    <text id="#D1D1D1" fill="none" font-family="HelveticaNeue-Medium, Helvetica Neue" font-size="16" font-weight="400" line-spacing="20" letter-spacing="-0.4">
                                        <tspan x="24" y="40" fill="#252525">#D1D1D1</tspan>
                                    </text>
                                </g>
                            </g>
                        </g>
                        <g id="Group-39" transform="translate(0, 290)">
                            <g id="Group-38" transform="translate(591, 0)">
                                <rect id="Rectangle-Copy-3" fill="#F8F9FA" x="0" y="0" width="567" height="139" rx="28"></rect>
                                <g id="Group-35" transform="translate(12, 12)">
                                    <rect id="Rectangle-Copy-3" fill="#D93954" x="0" y="0" width="173" height="115" rx="12"></rect>
                                    <text id="#D93954" font-family="HelveticaNeue-Medium, Helvetica Neue" font-size="16" font-weight="400" line-spacing="20" letter-spacing="-0.4" fill="#FFFFFF">
                                        <tspan x="24" y="40">#D93954</tspan>
                                    </text>
                                    <text id="Accent-1" font-family="HelveticaNeue-Medium, Helvetica Neue" font-size="16" font-weight="400" line-spacing="20" letter-spacing="-0.4" fill="#FFFFFF">
                                        <tspan x="24" y="87">Accent 1</tspan>
                                    </text>
                                </g>
                                <g id="Group-35-Copy" transform="translate(197, 12)">
                                    <rect id="Rectangle-Copy-3" fill="#FFB600" x="0" y="0" width="173" height="115" rx="12"></rect>
                                    <text id="#FFB600" font-family="HelveticaNeue-Medium, Helvetica Neue" font-size="16" font-weight="400" line-spacing="20" letter-spacing="-0.4" fill="#252525">
                                        <tspan x="24" y="40">#FFB600</tspan>
                                    </text>
                                    <text id="Accent-2" font-family="HelveticaNeue-Medium, Helvetica Neue" font-size="16" font-weight="400" line-spacing="20" letter-spacing="-0.4" fill="#252525">
                                        <tspan x="24" y="87">Accent 2</tspan>
                                    </text>
                                </g>
                                <g id="Group-35-Copy-8" transform="translate(382, 12)">
                                    <rect id="Rectangle-Copy-3" fill="#EB8C00" x="0" y="0" width="173" height="115" rx="12"></rect>
                                    <text id="#EB8C00" font-family="HelveticaNeue-Medium, Helvetica Neue" font-size="16" font-weight="400" line-spacing="20" letter-spacing="-0.4" fill="#252525">
                                        <tspan x="24" y="40">#EB8C00</tspan>
                                    </text>
                                    <text id="Accent-3" font-family="HelveticaNeue-Medium, Helvetica Neue" font-size="16" font-weight="400" line-spacing="20" letter-spacing="-0.4" fill="#252525">
                                        <tspan x="24" y="87">Accent 3</tspan>
                                    </text>
                                </g>
                            </g>
                            <g id="Group-38-Copy">
                                <rect id="Rectangle-Copy-3" fill="#F8F9FA" x="0" y="0" width="567" height="139" rx="28"></rect>
                                <g id="Group-35" transform="translate(12, 12)">
                                    <rect id="Rectangle-Copy-3" fill="#22992E" x="0" y="0" width="173" height="115" rx="12"></rect>
                                    <text id="#22992E" font-family="HelveticaNeue-Medium, Helvetica Neue" font-size="16" font-weight="400" line-spacing="20" letter-spacing="-0.4" fill="#FFFFFF">
                                        <tspan x="24" y="40">#22992E</tspan>
                                    </text>
                                    <text id="Success" font-family="HelveticaNeue-Medium, Helvetica Neue" font-size="16" font-weight="400" line-spacing="20" letter-spacing="-0.4" fill="#FFFFFF">
                                        <tspan x="24" y="87">Success</tspan>
                                    </text>
                                </g>
                                <g id="Group-35-Copy" transform="translate(197, 12)">
                                    <rect id="Rectangle-Copy-3" fill="#FFBF1F" x="0" y="0" width="173" height="115" rx="12"></rect>
                                    <text id="#FFBF1F" font-family="HelveticaNeue-Medium, Helvetica Neue" font-size="16" font-weight="400" line-spacing="20" letter-spacing="-0.4" fill="#252525">
                                        <tspan x="24" y="40">#FFBF1F</tspan>
                                    </text>
                                    <text id="Warning" font-family="HelveticaNeue-Medium, Helvetica Neue" font-size="16" font-weight="400" line-spacing="20" letter-spacing="-0.4" fill="#252525">
                                        <tspan x="24" y="87">Warning</tspan>
                                    </text>
                                </g>
                                <g id="Group-35-Copy-8" transform="translate(382, 12)">
                                    <rect id="Rectangle-Copy-3" fill="#C52A1A" x="0" y="0" width="173" height="115" rx="12"></rect>
                                    <text id="#C52A1A" font-family="HelveticaNeue-Medium, Helvetica Neue" font-size="16" font-weight="400" line-spacing="20" letter-spacing="-0.4" fill="#FFFFFF">
                                        <tspan x="24" y="40">#C52A1A</tspan>
                                    </text>
                                    <text id="Error" font-family="HelveticaNeue-Medium, Helvetica Neue" font-size="16" font-weight="400" line-spacing="20" letter-spacing="-0.4" fill="#FFFFFF">
                                        <tspan x="24" y="87">Error</tspan>
                                    </text>
                                </g>
                            </g>
                        </g>
                        <g id="Group-11">
                            <rect id="Rectangle-Copy-3" fill="#F8F9FA" x="0" y="0" width="370" height="266" rx="28"></rect>
                            <g id="Group-35" transform="translate(12, 12)">
                                <rect id="Rectangle-Copy-3" fill="#415385" x="0" y="0" width="346" height="115" rx="12"></rect>
                                <circle id="Oval" fill="#FFFFFF" cx="331" cy="15" r="3"></circle>
                                <text id="#415385" font-family="HelveticaNeue-Medium, Helvetica Neue" font-size="16" font-weight="400" line-spacing="20" letter-spacing="-0.4" fill="#FFFFFF">
                                    <tspan x="24" y="40">#415385</tspan>
                                </text>
                                <g id="Group-34" transform="translate(24, 71)" fill="#FFFFFF">
                                    <g id="Group-33">
                                        <text id="AA" font-family="HelveticaNeue-Medium, Helvetica Neue" font-size="16" font-weight="400" line-spacing="20" letter-spacing="-0.4">
                                            <tspan x="0" y="16">AA</tspan>
                                        </text>
                                        <g id="Icon/Outline/circle-checkmark-outline" transform="translate(25, 3)" fill-rule="nonzero">
                                            <g id="circle-checkmark" transform="translate(-0, 0)">
                                                <path d="M8,0 C12.4186667,0 16,3.58200001 16,8 C16,12.4180001 12.4186667,16 8,16 C3.58200001,16 0,12.4180001 0,8 C0,3.58200001 3.58200001,0 8,0 Z M8,15 C11.86,15 15,11.86 15,8 C15,4.14000002 11.86,1 8,1 C4.14000002,1 1,4.14000002 1,8 C1,11.86 4.14000002,15 8,15 Z M7.00673338,9.29586669 L10.9987334,5.28920002 L11.7067334,5.99520002 L7.00740003,10.7112 L4.70140002,8.40453339 L5.40806667,7.69786668 L7.00673338,9.29586669 Z" id="Combined-Shape"></path>
                                            </g>
                                        </g>
                                    </g>
                                    <g id="Group-33-Copy" transform="translate(53, 0)">
                                        <text id="AAA" font-family="HelveticaNeue-Medium, Helvetica Neue" font-size="16" font-weight="400" line-spacing="20" letter-spacing="-0.4">
                                            <tspan x="0" y="16">AAA</tspan>
                                        </text>
                                        <g id="Icon/Outline/circle-checkmark-outline" transform="translate(35, 3)" fill-rule="nonzero">
                                            <g id="circle-checkmark">
                                                <path d="M8,0 C12.4186667,0 16,3.58200001 16,8 C16,12.4180001 12.4186667,16 8,16 C3.58200001,16 0,12.4180001 0,8 C0,3.58200001 3.58200001,0 8,0 Z M8,15 C11.86,15 15,11.86 15,8 C15,4.14000002 11.86,1 8,1 C4.14000002,1 1,4.14000002 1,8 C1,11.86 4.14000002,15 8,15 Z M7.00673338,9.29586669 L10.9987334,5.28920002 L11.7067334,5.99520002 L7.00740003,10.7112 L4.70140002,8.40453339 L5.40806667,7.69786668 L7.00673338,9.29586669 Z" id="Combined-Shape"></path>
                                            </g>
                                        </g>
                                    </g>
                                    <text id="7.49:1" font-family="HelveticaNeue-Medium, Helvetica Neue" font-size="16" font-weight="400" line-spacing="20" letter-spacing="-0.4">
                                        <tspan x="116" y="16">7.49:1</tspan>
                                    </text>
                                </g>
                            </g>
                            <g id="Group-36" transform="translate(12, 139)">
                                <rect id="Rectangle-Copy-10" fill="#D04A02" x="0" y="0" width="346" height="115" rx="12"></rect>
                                <circle id="Oval" fill="#FFFFFF" cx="331" cy="15" r="3"></circle>
                                <text id="#D04A02" font-family="HelveticaNeue-Medium, Helvetica Neue" font-size="16" font-weight="400" line-spacing="20" letter-spacing="-0.4" fill="#FFFFFF">
                                    <tspan x="24" y="40">#D04A02</tspan>
                                </text>
                                <g id="Group-34" transform="translate(24, 71)" fill="#FFFFFF">
                                    <g id="Group-33">
                                        <text id="AA" font-family="HelveticaNeue-Medium, Helvetica Neue" font-size="16" font-weight="400" line-spacing="20" letter-spacing="-0.4">
                                            <tspan x="0" y="16">AA</tspan>
                                        </text>
                                        <g id="Icon/Outline/circle-checkmark-outline" transform="translate(25, 3)" fill-rule="nonzero">
                                            <g id="circle-checkmark" transform="translate(-0, 0)">
                                                <path d="M8,0 C12.4186667,0 16,3.58200001 16,8 C16,12.4180001 12.4186667,16 8,16 C3.58200001,16 0,12.4180001 0,8 C0,3.58200001 3.58200001,0 8,0 Z M8,15 C11.86,15 15,11.86 15,8 C15,4.14000002 11.86,1 8,1 C4.14000002,1 1,4.14000002 1,8 C1,11.86 4.14000002,15 8,15 Z M7.00673338,9.29586669 L10.9987334,5.28920002 L11.7067334,5.99520002 L7.00740003,10.7112 L4.70140002,8.40453339 L5.40806667,7.69786668 L7.00673338,9.29586669 Z" id="Combined-Shape"></path>
                                            </g>
                                        </g>
                                    </g>
                                    <g id="Group-33-Copy" transform="translate(53, 0)">
                                        <text id="AAA" font-family="HelveticaNeue-Medium, Helvetica Neue" font-size="16" font-weight="400" line-spacing="20" letter-spacing="-0.4">
                                            <tspan x="0" y="16">AAA</tspan>
                                        </text>
                                        <g id="Icon/Outline/circle-checkmark-outline" transform="translate(35, 3)" fill-rule="nonzero">
                                            <g id="circle-checkmark">
                                                <path d="M8,0 C12.4186667,0 16,3.58200001 16,8 C16,12.4180001 12.4186667,16 8,16 C3.58200001,16 0,12.4180001 0,8 C0,3.58200001 3.58200001,0 8,0 Z M8,15 C11.86,15 15,11.86 15,8 C15,4.14000002 11.86,1 8,1 C4.14000002,1 1,4.14000002 1,8 C1,11.86 4.14000002,15 8,15 Z M7.00673338,9.29586669 L10.9987334,5.28920002 L11.7067334,5.99520002 L7.00740003,10.7112 L4.70140002,8.40453339 L5.40806667,7.69786668 L7.00673338,9.29586669 Z" id="Combined-Shape"></path>
                                            </g>
                                        </g>
                                    </g>
                                    <text id="4.5:1" font-family="HelveticaNeue-Medium, Helvetica Neue" font-size="16" font-weight="400" line-spacing="20" letter-spacing="-0.4">
                                        <tspan x="116" y="16">4.5:1</tspan>
                                    </text>
                                </g>
                            </g>
                        </g>
                    </g>
                </g>
            </g>
        </g>
    </g>
</svg>