<?xml version="1.0" encoding="UTF-8"?>
<svg width="48px" height="48px" viewBox="0 0 48 48" version="1.1" xmlns="http://www.w3.org/2000/svg" xmlns:xlink="http://www.w3.org/1999/xlink">
    <title>Group 12</title>
    <g id="Pulse" stroke="none" stroke-width="1" fill="none" fill-rule="evenodd">
        <g transform="translate(-991, -1443)" id="Group-8">
            <g transform="translate(221, 874)">
                <g id="Group-7" transform="translate(0, 216)">
                    <g id="Group-109" transform="translate(710, 290)">
                        <g id="Group-12" transform="translate(60, 63)">
                            <circle id="Oval" fill="#FD6412" cx="24" cy="24" r="24"></circle>
                            <g id="bookmarks-fill" transform="translate(15, 12)" fill="#FFFFFF" fill-rule="nonzero">
                                <path d="M0,6.00003207 C0,4.34316897 1.34315293,3.00001604 3.00001604,3.00001604 L12.0000641,3.00001604 C13.6569273,3.00001604 15.0000802,4.34316897 15.0000802,6.00003207 L15.0000802,23.2501243 C15.0000802,23.5265395 14.8477661,23.7804706 14.6040789,23.9109389 C14.3603917,24.0414072 14.0646943,24.0272617 13.834574,23.8741276 L7.50004009,19.651605 L1.16550623,23.8741276 C0.935385913,24.0272617 0.639688447,24.0414072 0.39600127,23.9109389 C0.152314092,23.7804706 0,23.5265395 0,23.2501243 L0,6.00003207 Z" id="Path"></path>
                                <path d="M3.40201819,1.5 C3.93790582,0.571823406 4.9282568,0 6.00003207,0 L15.0000802,0 C16.6569433,0 18.0000962,1.34315293 18.0000962,3.00001604 L18.0000962,20.2501082 C18.0000962,20.5265235 17.8477821,20.7804546 17.6040949,20.9109229 C17.3604078,21.0413912 17.0647103,21.0272457 16.83459,20.8741116 L16.5000882,20.6521104 L16.5000882,3.00001604 C16.5000882,2.17158448 15.8285117,1.5 15.0000802,1.5 L3.40201819,1.5 Z" id="Path"></path>
                            </g>
                        </g>
                    </g>
                </g>
            </g>
        </g>
    </g>
</svg>