<?xml version="1.0" encoding="UTF-8"?>
<svg width="48px" height="48px" viewBox="0 0 48 48" version="1.1" xmlns="http://www.w3.org/2000/svg" xmlns:xlink="http://www.w3.org/1999/xlink">
    <title>Group 12</title>
    <g id="Pulse" stroke="none" stroke-width="1" fill="none" fill-rule="evenodd">
        <g transform="translate(-776, -1142)" id="Group-8">
            <g transform="translate(221, 874)">
                <g id="Group-7" transform="translate(0, 216)">
                    <g id="Group-2" transform="translate(394, 0)">
                        <g id="Group-14" transform="translate(132, 52)">
                            <g id="Group-12" transform="translate(29, 0)">
                                <circle id="Oval" fill="#FD6412" cx="24" cy="24" r="24"></circle>
                                <g id="person-bounding-box" transform="translate(12, 12)" fill="#FFFFFF" fill-rule="nonzero">
                                    <path d="M2.25,1.5 C1.83578644,1.5 1.5,1.83578644 1.5,2.25 L1.5,6.75 C1.5,7.16421356 1.16421356,7.5 0.75,7.5 C0.335786438,7.5 0,7.16421356 0,6.75 L0,2.25 C0,1.00735931 1.00735931,0 2.25,0 L6.75,0 C7.16421356,0 7.5,0.335786438 7.5,0.75 C7.5,1.16421356 7.16421356,1.5 6.75,1.5 L2.25,1.5 Z M16.5,0.75 C16.5,0.335786438 16.8357864,0 17.25,0 L21.75,0 C22.9926407,0 24,1.00735931 24,2.25 L24,6.75 C24,7.16421356 23.6642136,7.5 23.25,7.5 C22.8357864,7.5 22.5,7.16421356 22.5,6.75 L22.5,2.25 C22.5,1.83578644 22.1642136,1.5 21.75,1.5 L17.25,1.5 C16.8357864,1.5 16.5,1.16421356 16.5,0.75 M0.75,16.5 C1.16421356,16.5 1.5,16.8357864 1.5,17.25 L1.5,21.75 C1.5,22.1642136 1.83578644,22.5 2.25,22.5 L6.75,22.5 C7.16421356,22.5 7.5,22.8357864 7.5,23.25 C7.5,23.6642136 7.16421356,24 6.75,24 L2.25,24 C1.00735931,24 0,22.9926407 0,21.75 L0,17.25 C0,16.8357864 0.335786438,16.5 0,16.5 M23.25,16.5 C23.6642136,16.5 24,16.8357864 24,17.25 L24,21.75 C24,22.9926407 22.9926407,24 21.75,24 L17.25,24 C16.8357864,24 16.5,23.6642136 16.5,23.25 C16.5,22.8357864 16.8357864,22.5 17.25,22.5 L21.75,22.5 C22.1642136,22.5 22.5,22.1642136 22.5,21.75 L22.5,17.25 C22.5,16.8357864 22.8357864,16.5 23.25,16.5" id="Shape"></path>
                                    <path d="M4.5,21 C4.5,21 3,21 3,19.5 C3,18 4.5,13.5 12,13.5 C19.5,13.5 21,18 21,19.5 C21,21 19.5,21 19.5,21 L4.5,21 Z M16.5,7.5 C16.5,9.98528137 14.4852814,12 12,12 C9.51471863,12 7.5,9.98528137 7.5,7.5 C7.5,5.01471863 9.51471863,3 12,3 C14.4852814,3 16.5,5.01471863 16.5,7.5" id="Shape"></path>
                                </g>
                            </g>
                        </g>
                    </g>
                </g>
            </g>
        </g>
    </g>
</svg>