<?xml version="1.0" encoding="UTF-8"?>
<svg width="48px" height="48px" viewBox="0 0 48 48" version="1.1" xmlns="http://www.w3.org/2000/svg" xmlns:xlink="http://www.w3.org/1999/xlink">
    <title>Group 12</title>
    <g id="Pulse" stroke="none" stroke-width="1" fill="none" fill-rule="evenodd">
        <g transform="translate(-1170, -1142)" id="Group-8">
            <g transform="translate(221, 874)">
                <g id="Group-7" transform="translate(0, 216)">
                    <g id="Group-4" transform="translate(788, 0)">
                        <g id="Group-15" transform="translate(54, 52)">
                            <g id="Group-12" transform="translate(107, 0)">
                                <circle id="Oval" fill="#FD6412" cx="24" cy="24" r="24"></circle>
                                <g id="marker-tip" transform="translate(12, 12)" fill="#FFFFFF" fill-rule="nonzero">
                                    <path d="M12,24 C5.372583,24 0,18.627417 0,12 C0,5.372583 5.372583,0 12,0 C18.627417,0 24,5.372583 24,12 C24,18.627417 18.627417,24 12,24 Z M17.25,21.096 L15.3285,14.052 C15.2391706,13.7256342 14.9423698,13.4995002 14.604,13.4999992 L9.396,13.4999992 C9.05763016,13.4995002 8.76082937,13.7256342 8.6715,14.052 L6.7515,21.096 C8.34670611,22.0183379 10.1573437,22.5026925 12,22.5000112 C13.9125,22.5000112 15.705,21.99 17.25,21.096 M18.5595,20.199 C22.0414663,17.4132863 23.384126,12.7321349 21.9080545,8.52434417 C20.431983,4.31655344 16.4591804,1.50003911 12,1.50003911 C7.54081959,1.50003911 3.56801696,4.31655344 2.09194546,8.52434417 C0.615873962,12.7321349 1.95853374,17.4132863 5.4405,20.199 L7.2255,13.659 C7.47197854,12.7528198 8.25534604,12.0950303 9.1905,12.009 L10.923,6.2325 C11.2425,5.163 12.7575,5.163 13.077,6.2325 L14.811,12.009 C15.746154,12.0950303 16.5295215,12.7528198 16.776,13.659 L18.5595,20.199 Z" id="Shape"></path>
                                </g>
                            </g>
                        </g>
                    </g>
                </g>
            </g>
        </g>
    </g>
</svg>