<?xml version="1.0" encoding="UTF-8"?>
<svg width="48px" height="48px" viewBox="0 0 48 48" version="1.1" xmlns="http://www.w3.org/2000/svg" xmlns:xlink="http://www.w3.org/1999/xlink">
    <title>Group 12</title>
    <g id="👋-Welcome" stroke="none" stroke-width="1" fill="none" fill-rule="evenodd">
        <g id="DCB" transform="translate(-382, -1142)">
            <g id="Group-8" transform="translate(221, 874)">
                <g id="Group-7" transform="translate(0, 216)">
                    <g id="Group-13" transform="translate(93, 52)">
                        <g id="Group-12" transform="translate(68, 0)">
                            <circle id="Oval" fill="#4DACF1" cx="24" cy="24" r="24"></circle>
                            <g id="person-vcard" transform="translate(12, 15)" fill="#FFFFFF" fill-rule="nonzero">
                                <path d="M7.5,9 C9.15685425,9 10.5,7.65685425 10.5,6 C10.5,4.34314575 9.15685425,3 7.5,3 C5.84314575,3 4.5,4.34314575 4.5,6 C4.5,7.65685425 5.84314575,9 7.5,9 M13.5,5.25 C13.5,4.83578644 13.8357864,4.5 14.25,4.5 L20.25,4.5 C20.6642136,4.5 21,4.83578644 21,5.25 C21,5.66421356 20.6642136,6 20.25,6 L14.25,6 C13.8357864,6 13.5,5.66421356 13.5,5.25 M13.5,9 C13.5,8.58578644 13.8357864,8.25 14.25,8.25 L20.25,8.25 C20.6642136,8.25 21,8.58578644 21,9 C21,9.41421356 20.6642136,9.75 20.25,9.75 L14.25,9.75 C13.8357864,9.75 13.5,9.41421356 13.5,9 M15,12.75 C15,12.3357864 15.3357864,12 15.75,12 L20.25,12 C20.6642136,12 21,12.3357864 21,12.75 C21,13.1642136 20.6642136,13.5 20.25,13.5 L15.75,13.5 C15.3357864,13.5 15,13.1642136 15,12.75" id="Shape"></path>
                                <path d="M3,0 C1.34314575,0 0,1.34314575 0,3 L0,15 C0,16.6568542 1.34314575,18 3,18 L21,18 C22.6568542,18 24,16.6568542 24,15 L24,3 C24,1.34314575 22.6568542,0 21,0 L3,0 Z M1.49999408,3 C1.49999408,2.17157288 2.17157288,1.5 2.99999408,1.5 L20.9999941,1.5 C21.8284271,1.5 22.4999941,2.17157288 22.4999941,3 L22.4999941,15 C22.4999941,15.8284271 21.8284271,16.5 20.9999941,16.5 L13.44,16.5 C13.48,16.255 13.4999941,16.005 13.4999941,15.75 C13.4999941,12.8505 10.815,10.5 7.49999408,10.5 C4.371,10.5 1.8,12.597 1.524,15.2715 C1.50777735,15.1819159 1.4997442,15.0910408 1.49999408,15 L1.49999408,3 Z" id="Shape"></path>
                            </g>
                        </g>
                    </g>
                </g>
            </g>
        </g>
    </g>
</svg>